# xmcd
#
# Track frame offsets: 
#        150
#        22830
#        36628
#        53588
#        81985
#        100888
#        121439
#        141023
#        157283
#        172081
#        195406
#        212274
#
# Disc length: 3085 seconds
#
# Revision: 0
# Processed by: cddbd v1.5.2PL0 Copyright (c) Steve Scherf et al.
# Submitted via: ExactAudioCopy v0.99pb5
#
DISCID=a20c0b0c
DTITLE=Blues Funnel - Tukenarkaa
DYEAR=2008
DGENRE=Blues
TTITLE0=Lomilla
TTITLE1=Poispäin
TTITLE2=On aika naisen mennä
TTITLE3=Asemalla blues
TTITLE4=Työpaikan unelma
TTITLE5=Reissumies
TTITLE6=Kahvikupin pintaan
TTITLE7=Tulenarkaa
TTITLE8=Myrskyn silmässä
TTITLE9=Samassa veneessä
TTITLE10=Tuu aina uudestaan
TTITLE11=Varhaisen suppilon blues
EXTD=
EXTT0=
EXTT1=
EXTT2=
EXTT3=
EXTT4=
EXTT5=
EXTT6=
EXTT7=
EXTT8=
EXTT9=
EXTT10=
EXTT11=
PLAYORDER=
